<svg width="24" height="27" viewBox="0 0 24 27" fill="none" xmlns="http://www.w3.org/2000/svg">
<g clip-path="url(#clip0_62_10)">
<path d="M8.14286 1.26562C8.14286 0.564258 7.56964 0 6.85714 0C6.14464 0 5.57143 0.564258 5.57143 1.26562V3.375H3.42857C1.5375 3.375 0 4.88848 0 6.75V7.59375V10.125V23.625C0 25.4865 1.5375 27 3.42857 27H20.5714C22.4625 27 24 25.4865 24 23.625V10.125V7.59375V6.75C24 4.88848 22.4625 3.375 20.5714 3.375H18.4286V1.26562C18.4286 0.564258 17.8554 0 17.1429 0C16.4304 0 15.8571 0.564258 15.8571 1.26562V3.375H8.14286V1.26562ZM2.57143 10.125H21.4286V23.625C21.4286 24.0891 21.0429 24.4688 20.5714 24.4688H3.42857C2.95714 24.4688 2.57143 24.0891 2.57143 23.625V10.125ZM5.14286 14.7656C5.14286 15.467 5.71607 16.0312 6.42857 16.0312H17.5714C18.2839 16.0312 18.8571 15.467 18.8571 14.7656C18.8571 14.0643 18.2839 13.5 17.5714 13.5H6.42857C5.71607 13.5 5.14286 14.0643 5.14286 14.7656ZM6.42857 18.5625C5.71607 18.5625 5.14286 19.1268 5.14286 19.8281C5.14286 20.5295 5.71607 21.0938 6.42857 21.0938H12.4286C13.1411 21.0938 13.7143 20.5295 13.7143 19.8281C13.7143 19.1268 13.1411 18.5625 12.4286 18.5625H6.42857Z" fill="currentColor"/>
</g>
<defs>
<clipPath id="clip0_62_10">
<rect width="24" height="27" fill="currentColor"/>
</clipPath>
</defs>
</svg>
