<svg width="24" height="27" viewBox="0 0 24 27" fill="none" xmlns="http://www.w3.org/2000/svg">
<g clip-path="url(#clip0_67_10)">
<path d="M6.85714 0C7.80536 0 8.57143 0.754102 8.57143 1.6875V3.375H15.4286V1.6875C15.4286 0.754102 16.1946 0 17.1429 0C18.0911 0 18.8571 0.754102 18.8571 1.6875V3.375H21.4286C22.8482 3.375 24 4.50879 24 5.90625V8.4375H0V5.90625C0 4.50879 1.15179 3.375 2.57143 3.375H5.14286V1.6875C5.14286 0.754102 5.90893 0 6.85714 0ZM0 10.125H24V24.4688C24 25.8662 22.8482 27 21.4286 27H2.57143C1.15179 27 0 25.8662 0 24.4688V10.125ZM3.42857 14.3438V16.0312C3.42857 16.4953 3.81429 16.875 4.28571 16.875H6C6.47143 16.875 6.85714 16.4953 6.85714 16.0312V14.3438C6.85714 13.8797 6.47143 13.5 6 13.5H4.28571C3.81429 13.5 3.42857 13.8797 3.42857 14.3438ZM10.2857 14.3438V16.0312C10.2857 16.4953 10.6714 16.875 11.1429 16.875H12.8571C13.3286 16.875 13.7143 16.4953 13.7143 16.0312V14.3438C13.7143 13.8797 13.3286 13.5 12.8571 13.5H11.1429C10.6714 13.5 10.2857 13.8797 10.2857 14.3438ZM18 13.5C17.5286 13.5 17.1429 13.8797 17.1429 14.3438V16.0312C17.1429 16.4953 17.5286 16.875 18 16.875H19.7143C20.1857 16.875 20.5714 16.4953 20.5714 16.0312V14.3438C20.5714 13.8797 20.1857 13.5 19.7143 13.5H18ZM3.42857 21.0938V22.7812C3.42857 23.2453 3.81429 23.625 4.28571 23.625H6C6.47143 23.625 6.85714 23.2453 6.85714 22.7812V21.0938C6.85714 20.6297 6.47143 20.25 6 20.25H4.28571C3.81429 20.25 3.42857 20.6297 3.42857 21.0938ZM11.1429 20.25C10.6714 20.25 10.2857 20.6297 10.2857 21.0938V22.7812C10.2857 23.2453 10.6714 23.625 11.1429 23.625H12.8571C13.3286 23.625 13.7143 23.2453 13.7143 22.7812V21.0938C13.7143 20.6297 13.3286 20.25 12.8571 20.25H11.1429ZM17.1429 21.0938V22.7812C17.1429 23.2453 17.5286 23.625 18 23.625H19.7143C20.1857 23.625 20.5714 23.2453 20.5714 22.7812V21.0938C20.5714 20.6297 20.1857 20.25 19.7143 20.25H18C17.5286 20.25 17.1429 20.6297 17.1429 21.0938Z" fill="currentColor"/>
</g>
<defs>
<clipPath id="clip0_67_10">
<rect width="24" height="27" fill="currentColor"/>
</clipPath>
</defs>
</svg>
