<svg width="24" height="25" viewBox="0 0 24 25" fill="none" xmlns="http://www.w3.org/2000/svg">
<g clip-path="url(#clip0_62_23)">
<path d="M10.5 0.5C9.67031 0.5 9 1.17031 9 2V3.5H6.75C5.50781 3.5 4.5 4.50781 4.5 5.75V8H24V5.75C24 4.50781 22.9922 3.5 21.75 3.5H19.5V2C19.5 1.17031 18.8297 0.5 18 0.5C17.1703 0.5 16.5 1.17031 16.5 2V3.5H12V2C12 1.17031 11.3297 0.5 10.5 0.5ZM4.5 9.5V17.75C4.5 18.9922 5.50781 20 6.75 20H21.75C22.9922 20 24 18.9922 24 17.75V9.5H4.5ZM2.25 9.125C2.25 8.50156 1.74844 8 1.125 8C0.501562 8 0 8.50156 0 9.125V18.875C0 21.9828 2.51719 24.5 5.625 24.5H18.375C18.9984 24.5 19.5 23.9984 19.5 23.375C19.5 22.7516 18.9984 22.25 18.375 22.25H5.625C3.75938 22.25 2.25 20.7406 2.25 18.875V9.125Z" fill="currentColor"/>
</g>
<defs>
<clipPath id="clip0_62_23">
<rect width="24" height="24" fill="currentColor" transform="translate(0 0.5)"/>
</clipPath>
</defs>
</svg>
