<svg width="24" height="27" viewBox="0 0 24 27" fill="none" xmlns="http://www.w3.org/2000/svg">
<g clip-path="url(#clip0_67_14)">
<path d="M5.14286 1.6875V3.375H2.57143C1.15179 3.375 0 4.50879 0 5.90625V8.4375H24V5.90625C24 4.50879 22.8482 3.375 21.4286 3.375H18.8571V1.6875C18.8571 0.754102 18.0911 0 17.1429 0C16.1946 0 15.4286 0.754102 15.4286 1.6875V3.375H8.57143V1.6875C8.57143 0.754102 7.80536 0 6.85714 0C5.90893 0 5.14286 0.754102 5.14286 1.6875ZM24 10.125H0V24.4688C0 25.8662 1.15179 27 2.57143 27H21.4286C22.8482 27 24 25.8662 24 24.4688V10.125ZM5.14286 15.6094C5.14286 14.908 5.71607 14.3438 6.42857 14.3438H17.5714C18.2839 14.3438 18.8571 14.908 18.8571 15.6094C18.8571 16.3107 18.2839 16.875 17.5714 16.875H6.42857C5.71607 16.875 5.14286 16.3107 5.14286 15.6094ZM6.42857 19.4062H12.4286C13.1411 19.4062 13.7143 19.9705 13.7143 20.6719C13.7143 21.3732 13.1411 21.9375 12.4286 21.9375H6.42857C5.71607 21.9375 5.14286 21.3732 5.14286 20.6719C5.14286 19.9705 5.71607 19.4062 6.42857 19.4062Z" fill="currentColor"/>
</g>
<defs>
<clipPath id="clip0_67_14">
<rect width="24" height="27" fill="currentColor"/>
</clipPath>
</defs>
</svg>
