<svg width="24" height="28" viewBox="0 0 24 28" fill="none" xmlns="http://www.w3.org/2000/svg">
<path d="M21.4286 17.375C22.8482 17.375 24 16.2412 24 14.8438V13.1562C24 11.7588 22.8482 10.625 21.4286 10.625H2.57143C1.15179 10.625 0 11.7588 0 13.1562V14.8438C0 16.2412 1.15179 17.375 2.57143 17.375H21.4286ZM11.1429 25.8125C12.5625 25.8125 13.7143 24.6787 13.7143 23.2812V21.5938C13.7143 20.1963 12.5625 19.0625 11.1429 19.0625H2.57143C1.15179 19.0625 0 20.1963 0 21.5938V23.2812C0 24.6787 1.15179 25.8125 2.57143 25.8125H11.1429ZM20.5714 6.40625V4.71875C20.5714 3.32129 19.4196 2.1875 18 2.1875H2.57143C1.15179 2.1875 0 3.32129 0 4.71875V6.40625C0 7.80371 1.15179 8.9375 2.57143 8.9375H18C19.4196 8.9375 20.5714 7.80371 20.5714 6.40625Z" fill="currentColor"/>
</svg>
