<svg width="24" height="28" viewBox="0 0 24 28" fill="none" xmlns="http://www.w3.org/2000/svg">
<g clip-path="url(#clip0_308_55)">
<path d="M0 12.3125C0 9.17963 1.26428 6.17507 3.51472 3.9598C5.76516 1.74453 8.8174 0.5 12 0.5C15.1826 0.5 18.2348 1.74453 20.4853 3.9598C22.7357 6.17507 24 9.17963 24 12.3125C24 15.4454 22.7357 18.4499 20.4853 20.6652C18.2348 22.8805 15.1826 24.125 12 24.125C8.8174 24.125 5.76516 22.8805 3.51472 20.6652C1.26428 18.4499 0 15.4454 0 12.3125ZM12 5.5625C11.2875 5.5625 10.7143 6.12676 10.7143 6.82812V12.3125C10.7143 12.65 10.8482 12.9717 11.0893 13.209L13.6607 15.7402C14.1643 16.2359 14.9786 16.2359 15.4768 15.7402C15.975 15.2445 15.9804 14.443 15.4768 13.9525L13.2804 11.7904V6.82812C13.2804 6.12676 12.7071 5.5625 11.9946 5.5625H12ZM12 25.8125C17.1643 25.8125 21.6589 23.0018 24 18.8516V24.9688C24 26.3662 22.8482 27.5 21.4286 27.5H2.57143C1.15179 27.5 0 26.3662 0 24.9688V18.8516C2.34107 23.0018 6.83571 25.8125 12 25.8125Z" fill="currentColor"/>
</g>
<defs>
<clipPath id="clip0_308_55">
<rect width="24" height="27" fill="currentColor" transform="translate(0 0.5)"/>
</clipPath>
</defs>
</svg>
