<svg width="24" height="25" viewBox="0 0 24 25" fill="none" xmlns="http://www.w3.org/2000/svg">
<g clip-path="url(#clip0_62_34)">
<path d="M23.2453 8.30938C23.3953 8.71719 23.2687 9.17188 22.9453 9.4625L20.9156 11.3094C20.9672 11.6984 20.9953 12.0969 20.9953 12.5C20.9953 12.9031 20.9672 13.3016 20.9156 13.6906L22.9453 15.5375C23.2687 15.8281 23.3953 16.2828 23.2453 16.6906C23.039 17.2484 22.7906 17.7828 22.5047 18.2984L22.2843 18.6781C21.975 19.1937 21.6281 19.6812 21.2484 20.1406C20.9718 20.4781 20.5125 20.5906 20.1 20.4594L17.489 19.6297C16.8609 20.1125 16.1672 20.5156 15.4265 20.8203L14.8406 23.4969C14.7468 23.9234 14.4187 24.2609 13.9875 24.3312C13.3406 24.4391 12.675 24.4953 11.9953 24.4953C11.3156 24.4953 10.65 24.4391 10.0031 24.3312C9.57184 24.2609 9.24371 23.9234 9.14996 23.4969L8.56403 20.8203C7.8234 20.5156 7.12965 20.1125 6.50153 19.6297L3.89528 20.4641C3.48278 20.5953 3.0234 20.4781 2.74684 20.1453C2.36715 19.6859 2.02028 19.1984 1.7109 18.6828L1.49059 18.3031C1.20465 17.7875 0.956213 17.2531 0.749963 16.6953C0.599963 16.2875 0.726526 15.8328 1.04996 15.5422L3.07965 13.6953C3.02809 13.3016 2.99996 12.9031 2.99996 12.5C2.99996 12.0969 3.02809 11.6984 3.07965 11.3094L1.04996 9.4625C0.726526 9.17188 0.599963 8.71719 0.749963 8.30938C0.956213 7.75156 1.20465 7.21719 1.49059 6.70156L1.7109 6.32187C2.02028 5.80625 2.36715 5.31875 2.74684 4.85938C3.0234 4.52187 3.48278 4.40937 3.89528 4.54062L6.50621 5.37031C7.13434 4.8875 7.82809 4.48438 8.56871 4.17969L9.15465 1.50312C9.2484 1.07656 9.57653 0.739062 10.0078 0.66875C10.6547 0.55625 11.3203 0.5 12 0.5C12.6797 0.5 13.3453 0.55625 13.9922 0.664062C14.4234 0.734375 14.7515 1.07187 14.8453 1.49844L15.4312 4.175C16.1718 4.47969 16.8656 4.88281 17.4937 5.36563L20.1047 4.53594C20.5172 4.40469 20.9765 4.52187 21.2531 4.85469C21.6328 5.31406 21.9797 5.80156 22.289 6.31719L22.5093 6.69687C22.7953 7.2125 23.0437 7.74687 23.25 8.30469L23.2453 8.30938ZM12 16.25C12.9945 16.25 13.9484 15.8549 14.6516 15.1517C15.3549 14.4484 15.75 13.4946 15.75 12.5C15.75 11.5054 15.3549 10.5516 14.6516 9.84835C13.9484 9.14509 12.9945 8.75 12 8.75C11.0054 8.75 10.0516 9.14509 9.34831 9.84835C8.64505 10.5516 8.24996 11.5054 8.24996 12.5C8.24996 13.4946 8.64505 14.4484 9.34831 15.1517C10.0516 15.8549 11.0054 16.25 12 16.25Z" fill="currentColor"/>
</g>
<defs>
<clipPath id="clip0_62_34">
<rect width="24" height="24" fill="currentColor" transform="translate(0 0.5)"/>
</clipPath>
</defs>
</svg>
