<svg width="24" height="25" viewBox="0 0 24 25" fill="none" xmlns="http://www.w3.org/2000/svg">
<path d="M10.5 4.25C10.5 3.00781 9.49219 2 8.25 2H3.75C2.50781 2 1.5 3.00781 1.5 4.25V8.75C1.5 9.99219 2.50781 11 3.75 11H8.25C9.49219 11 10.5 9.99219 10.5 8.75V4.25ZM10.5 16.25C10.5 15.0078 9.49219 14 8.25 14H3.75C2.50781 14 1.5 15.0078 1.5 16.25V20.75C1.5 21.9922 2.50781 23 3.75 23H8.25C9.49219 23 10.5 21.9922 10.5 20.75V16.25ZM13.5 4.25V8.75C13.5 9.99219 14.5078 11 15.75 11H20.25C21.4922 11 22.5 9.99219 22.5 8.75V4.25C22.5 3.00781 21.4922 2 20.25 2H15.75C14.5078 2 13.5 3.00781 13.5 4.25ZM22.5 16.25C22.5 15.0078 21.4922 14 20.25 14H15.75C14.5078 14 13.5 15.0078 13.5 16.25V20.75C13.5 21.9922 14.5078 23 15.75 23H20.25C21.4922 23 22.5 21.9922 22.5 20.75V16.25Z" fill="currentColor"/>
</svg>
