<svg width="24" height="25" viewBox="0 0 24 25" fill="none" xmlns="http://www.w3.org/2000/svg">
<g clip-path="url(#clip0_67_16)">
<path d="M22.1063 1.51718C21.0797 0.490613 19.4203 0.490613 18.3937 1.51718L16.9828 2.92343L21.5719 7.51249L22.9828 6.10155C24.0094 5.07499 24.0094 3.41561 22.9828 2.38905L22.1063 1.51718ZM8.08125 11.8297C7.79531 12.1156 7.575 12.4672 7.44844 12.8562L6.06094 17.0187C5.925 17.4219 6.03281 17.8672 6.33281 18.1719C6.63281 18.4766 7.07812 18.5797 7.48594 18.4437L11.6484 17.0562C12.0328 16.9297 12.3844 16.7094 12.675 16.4234L20.5172 8.57655L15.9234 3.9828L8.08125 11.8297ZM4.5 3.49999C2.01562 3.49999 0 5.51561 0 7.99999V20C0 22.4844 2.01562 24.5 4.5 24.5H16.5C18.9844 24.5 21 22.4844 21 20V15.5C21 14.6703 20.3297 14 19.5 14C18.6703 14 18 14.6703 18 15.5V20C18 20.8297 17.3297 21.5 16.5 21.5H4.5C3.67031 21.5 3 20.8297 3 20V7.99999C3 7.1703 3.67031 6.49999 4.5 6.49999H9C9.82969 6.49999 10.5 5.82968 10.5 4.99999C10.5 4.1703 9.82969 3.49999 9 3.49999H4.5Z" fill="currentColor"/>
</g>
<defs>
<clipPath id="clip0_67_16">
<rect width="24" height="24" fill="currentColor" transform="translate(0 0.5)"/>
</clipPath>
</defs>
</svg>
