<svg width="24" height="27" viewBox="0 0 24 27" fill="none" xmlns="http://www.w3.org/2000/svg">
<path d="M13.7143 4.21875C13.7143 3.28535 12.9482 2.53125 12 2.53125C11.0518 2.53125 10.2857 3.28535 10.2857 4.21875V11.8125H2.57146C1.62325 11.8125 0.857178 12.5666 0.857178 13.5C0.857178 14.4334 1.62325 15.1875 2.57146 15.1875H10.2857V22.7812C10.2857 23.7146 11.0518 24.4688 12 24.4688C12.9482 24.4688 13.7143 23.7146 13.7143 22.7812V15.1875H21.4286C22.3768 15.1875 23.1429 14.4334 23.1429 13.5C23.1429 12.5666 22.3768 11.8125 21.4286 11.8125H13.7143V4.21875Z" fill="currentColor"/>
</svg>
