<svg width="24" height="25" viewBox="0 0 24 25" fill="none" xmlns="http://www.w3.org/2000/svg">
<g clip-path="url(#clip0_271_18)">
<path d="M13.5 2C13.5 1.17031 12.8297 0.5 12 0.5C11.1703 0.5 10.5 1.17031 10.5 2V11H1.5C0.670312 11 0 11.6703 0 12.5C0 13.3297 0.670312 14 1.5 14H10.5V23C10.5 23.8297 11.1703 24.5 12 24.5C12.8297 24.5 13.5 23.8297 13.5 23V14H22.5C23.3297 14 24 13.3297 24 12.5C24 11.6703 23.3297 11 22.5 11H13.5V2Z" fill="currentColor"/>
</g>
<defs>
<clipPath id="clip0_271_18">
<rect width="24" height="24" fill="currentColor" transform="translate(0 0.5)"/>
</clipPath>
</defs>
</svg>
