<svg width="24" height="25" viewBox="0 0 24 25" fill="none" xmlns="http://www.w3.org/2000/svg">
<path d="M21.7265 11H22.125C22.7484 11 23.25 10.4984 23.25 9.87497V3.87497C23.25 3.42028 22.9781 3.00778 22.5562 2.83434C22.1343 2.66091 21.6515 2.75466 21.3281 3.07809L19.3781 5.02809C15.2718 0.973407 8.65776 0.98747 4.57495 5.07497C0.473389 9.17653 0.473389 15.8234 4.57495 19.925C8.67651 24.0265 15.3234 24.0265 19.425 19.925C20.0109 19.339 20.0109 18.3875 19.425 17.8015C18.839 17.2156 17.8875 17.2156 17.3015 17.8015C14.3718 20.7312 9.62339 20.7312 6.6937 17.8015C3.76401 14.8718 3.76401 10.1234 6.6937 7.19372C9.60933 4.27809 14.3203 4.26403 17.2546 7.14684L15.3281 9.07809C15.0046 9.40153 14.9109 9.88434 15.0843 10.3062C15.2578 10.7281 15.6703 11 16.125 11H21.7265Z" fill="currentColor"/>
</svg>
