<svg width="24" height="27" viewBox="0 0 24 27" fill="none" xmlns="http://www.w3.org/2000/svg">
<path d="M3.42857 1.6875C1.5375 1.6875 0 3.20098 0 5.0625V21.9375C0 23.799 1.5375 25.3125 3.42857 25.3125H20.5714C22.4625 25.3125 24 23.799 24 21.9375V5.0625C24 3.20098 22.4625 1.6875 20.5714 1.6875H3.42857ZM10.7143 18.1406V14.7656H7.28571C6.57321 14.7656 6 14.2014 6 13.5C6 12.7986 6.57321 12.2344 7.28571 12.2344H10.7143V8.85938C10.7143 8.15801 11.2875 7.59375 12 7.59375C12.7125 7.59375 13.2857 8.15801 13.2857 8.85938V12.2344H16.7143C17.4268 12.2344 18 12.7986 18 13.5C18 14.2014 17.4268 14.7656 16.7143 14.7656H13.2857V18.1406C13.2857 18.842 12.7125 19.4062 12 19.4062C11.2875 19.4062 10.7143 18.842 10.7143 18.1406Z" fill="currentColor"/>
</svg>
