<svg width="24" height="28" viewBox="0 0 24 28" fill="none" xmlns="http://www.w3.org/2000/svg">
<g clip-path="url(#clip0_297_45)">
<path d="M7.24286 1.4334L6.85714 2.1875H1.71429C0.766071 2.1875 0 2.9416 0 3.875C0 4.8084 0.766071 5.5625 1.71429 5.5625H22.2857C23.2339 5.5625 24 4.8084 24 3.875C24 2.9416 23.2339 2.1875 22.2857 2.1875H17.1429L16.7571 1.4334C16.4679 0.858594 15.8732 0.5 15.225 0.5H8.775C8.12679 0.5 7.53214 0.858594 7.24286 1.4334ZM22.2857 7.25H1.71429L2.85 25.127C2.93571 26.4611 4.06071 27.5 5.41607 27.5H18.5839C19.9393 27.5 21.0643 26.4611 21.15 25.127L22.2857 7.25Z" fill="currentColor"/>
</g>
<defs>
<clipPath id="clip0_297_45">
<rect width="24" height="27" fill="currentColor" transform="translate(0 0.5)"/>
</clipPath>
</defs>
</svg>
