<svg width="24" height="32" viewBox="0 0 24 32" fill="none" xmlns="http://www.w3.org/2000/svg">
<path d="M21.4125 9.41249C22.1938 8.63124 22.1938 7.36249 21.4125 6.58124C20.6313 5.79999 19.3625 5.79999 18.5813 6.58124L12 13.1687L5.41255 6.58749C4.6313 5.80624 3.36255 5.80624 2.5813 6.58749C1.80005 7.36874 1.80005 8.63749 2.5813 9.41874L9.1688 16L2.58755 22.5875C1.8063 23.3687 1.8063 24.6375 2.58755 25.4187C3.3688 26.2 4.63755 26.2 5.4188 25.4187L12 18.8312L18.5875 25.4125C19.3688 26.1937 20.6376 26.1937 21.4188 25.4125C22.2001 24.6312 22.2001 23.3625 21.4188 22.5812L14.8313 16L21.4125 9.41249Z" fill="currentColor"/>
</svg>
